<svg xmlns="http://www.w3.org/2000/svg" xmlns:xlink="http://www.w3.org/1999/xlink" width="374" height="180" viewBox="0 0 374 180">
    <defs>
        <path id="i94gipnfma" d="M0 0H374V180H0z"/>
        <path id="xjqyd3w09c" d="M0 0.407H381.277V291.914H0z"/>
        <path id="4mwmnkorbe" d="M18.457 9.488c0 5-4.042 9.054-9.03 9.054C4.442 18.542.4 14.49.4 9.488S4.44.433 9.428.433s9.03 4.054 9.03 9.055"/>
        <linearGradient id="pwogpwn5rg" x1="85.389%" x2="46.352%" y1="86.278%" y2="46.414%">
            <stop offset="0%" stop-color="#B57B31"/>
            <stop offset="100%" stop-color="#F6BC2C"/>
        </linearGradient>
    </defs>
    <g fill="none" fill-rule="evenodd">
        <g>
            <g>
                <g transform="translate(-644 -736) translate(644 736)">
                    <mask id="rwnx4qc9ub" fill="#fff">
                        <use xlink:href="#i94gipnfma"/>
                    </mask>
                    <use fill="#FFF" xlink:href="#i94gipnfma"/>
                    <g mask="url(#rwnx4qc9ub)">
                        <g transform="translate(-4 -35)">
                            <mask id="n3fznp1q4d" fill="#fff">
                                <use xlink:href="#xjqyd3w09c"/>
                            </mask>
                            <use fill="#D8D8D8" xlink:href="#xjqyd3w09c"/>
                            <path fill="#1A1919" d="M69.982 205.43c-.365.015-.73.034-1.1.034.37-.005.735-.02 1.1-.035M90.532 204.227v.006l-.74.044-.02.005h-.04l.02-.005c.222-.035.444-.05.671-.05h.109M69.108 212.09c-.059.024-.123.039-.197.039.054 0 .099-.015.143-.03l.044-.014.01.004" mask="url(#n3fznp1q4d)"/>
                            <path fill="#FFFFFE" d="M-3.729 292.52L386.164 292.52 386.164 194.031 -3.729 194.031z" mask="url(#n3fznp1q4d)"/>
                            <path fill="#EEFBFB" d="M-3.063 194.308L386.36 194.308 386.36 -19.752 -3.063 -19.752z" mask="url(#n3fznp1q4d)"/>
                            <path fill="#BAF4F7" d="M175.437 61.615s-48.969 39.837-77.18 27.089C70.048 75.957 45.032 59.49 45.032 59.49S13.627 47.273-3.406 55.772l.532 138.103 389.536.53-.822-150.246c-6.12-1.883-30.385-8.661-43.803-2.197-15.435 7.436-35.13 15.935-35.13 15.935s-7.924 3.093-20.489 4.77c-18.328 18.323-37.613 26.569-37.613 26.569s-26.614 10.623-54.292-16.998c-5.346-5.335-10.79-9.59-16.097-13-2.042 1.35-2.98 2.377-2.98 2.377" mask="url(#n3fznp1q4d)"/>
                            <path fill="#171E2C" d="M67.935 181.637c-19.215 0-34.792 15.62-34.792 34.888 0 19.269 15.577 34.89 34.792 34.89 19.216 0 34.793-15.621 34.793-34.89 0-19.268-15.577-34.888-34.793-34.888m38.812 34.713c0 21.457-17.348 38.853-38.746 38.853-21.398 0-38.745-17.396-38.745-38.853 0-21.458 17.347-38.852 38.745-38.852 21.398 0 38.746 17.394 38.746 38.852" mask="url(#n3fznp1q4d)"/>
                            <path fill="#D3D7DB" d="M68.294 185.246c-17.314 0-31.351 14.076-31.351 31.438 0 17.363 14.037 31.438 31.351 31.438 17.315 0 31.352-14.075 31.352-31.438 0-17.362-14.037-31.438-31.352-31.438zm34.973 31.28c0 19.335-15.631 35.01-34.913 35.01-19.283 0-34.914-15.675-34.914-35.01 0-19.336 15.631-35.01 34.914-35.01 19.282 0 34.913 15.674 34.913 35.01z" mask="url(#n3fznp1q4d)"/>
                            <path fill="#B6B7B3" d="M91.132 223.954c-3.028 9.668-12.035 16.681-22.674 16.68-6.561 0-12.501-2.666-16.801-6.978-4.3-4.312-6.96-10.268-6.96-16.847 0-5.632 1.949-10.807 5.206-14.885l-.192-.154c-3.291 4.12-5.26 9.35-5.26 15.039 0 13.294 10.748 24.072 24.007 24.072 10.75 0 19.85-7.085 22.909-16.853l-.235-.073" mask="url(#n3fznp1q4d)"/>
                            <path fill="#DAF9FB" d="M-2.741 193.875l-.53-138.103c16.95-8.499 48.203 3.718 48.203 3.718s24.895 16.467 52.97 29.214c28.074 12.748 76.806-27.089 76.806-27.089s.933-1.027 2.965-2.376c-22.06-14.24-41.718-13.559-41.718-13.559s-28.604 0-37.078 2.656c-8.476 2.655-43.966.531-56.149-12.748C30.545 22.308 25.778 16.466 23.13 0H-3.886l-.553 37.16.553 156.715 388.801.53-387.656-.53" mask="url(#n3fznp1q4d)"/>
                            <path fill="#DCF0F2" d="M341.906 41.962c13.537-6.464 38.02.314 44.192 2.197L385.854 0h-27.387s-38.127 16.997-58.534 46.742c-4.152 6.054-8.774 11.391-13.499 16.073 12.677-1.679 20.03-4.918 20.03-4.918s19.87-8.499 35.442-15.935" mask="url(#n3fznp1q4d)"/>
                            <path fill="#DAF9FB" d="M248.369 89.236s19.825-8.1 38.065-26.421c-12.8 1.717-31.107 1.8-52.812-4.918-32.371-10.019-49.057-2.806-55.302 1.342 5.281 3.409 10.699 7.664 16.02 13 27.544 27.62 54.029 16.997 54.029 16.997" mask="url(#n3fznp1q4d)"/>
                            <path fill="#36B086" d="M-3.88 166.611v-65.773s22.259 2.679 32.646 4.167c10.389 1.488 22.854 10.416 22.854 10.416s19.885 16.965 27.899 18.75c8.013 2.976 74.198 24.107 74.198 24.107s10.092 4.464 27.306 3.869l9.794.893s4.748 1.488 5.045 3.571H-3.88" mask="url(#n3fznp1q4d)"/>
                            <path fill="#82B84B" d="M156.814 193.59h-3.685s-.16-1.607-1.121-3.053.16-1.928.16-1.928.927-1.032 2.082 1.285c1.122.964 1.443-.482 1.443-.482l1.12-2.73s1.585-1.747.802 2.57c-.64 3.534-.801 4.337-.801 4.337" mask="url(#n3fznp1q4d)"/>
                            <path fill="#36B086" d="M262.336 138.248l-.347-17.438s-3.478-6.976-5.391.522c-1.913 7.5-5.392 19.357-5.392 19.357l11.13-2.44" mask="url(#n3fznp1q4d)"/>
                            <path fill="#F6FAFB" d="M296.212 71.156l58.432.174s-1.392-3.487-4-3.837c-2.609-.348-1.913-2.79-1.913-2.79s-1.74-7.324-7.825-6.451c-6.087.871-7.305 6.103-7.305 6.103s-.695 3.138-2.956.523c-2.26-2.616-5.043-.523-5.043-.523s-1.218 4.01-5.043 2.092c-2.61-3.487-2.088-5.929-8.348-6.626-6.26-.698-8 6.8-8 6.8s0 3.837-1.565 1.57c-1.565-2.267-2.956-3.139-4.87-1.046-1.216 2.267-1.564 4.01-1.564 4.01" mask="url(#n3fznp1q4d)"/>
                            <path fill="#FDFDFD" d="M178.368 111.09h26.187s-.492-1.316-2.377-1.644c0 0-.532.04-.82-.863-.287-.905-.696-3-3.196-3.123-2.5-.123-3.155 1.602-3.155 1.602s-.533.945-.656 1.931c-.37.781-1.353-1.109-1.353-1.109s-1.065-2.013-1.967-.164c-.286 1.027-.492.822-.492.822s-.328 0-.655-.781c-.328-.781-1.516-1.932-2.869-1.89-1.352.04-2.704 1.109-2.704 1.109s-1.066.698-1.394 2.383c-.246.535-.942-.205-.942-.205s-1.189-.37-2.132.205c-1.024.576-1.188 1.069-1.475 1.726" mask="url(#n3fznp1q4d)"/>
                            <path fill="#1A3235" d="M-3.658 166.603v-36.309s22.853-15.476 45.41-2.976c8.606 5.06 23.743 16.071 23.743 16.071s13.652 9.524 32.054 8.929c18.4-.595 30.273 7.143 40.66 14.88l-141.867-.595" mask="url(#n3fznp1q4d)"/>
                            <path fill="#36B086" d="M242.652 137.888l-2.372-11.63s-1.038-5.806-3.3-.923c-1.738 5.231-3.999 16.217-3.999 16.217l9.67-3.664" mask="url(#n3fznp1q4d)"/>
                            <path fill="#1A3235" d="M265.897 137.065h-16.87s-12.127-1.057-18.98 4.758c-6.854 5.816-9.226 10.574-16.08 12.424-6.854 1.85-10.281 4.493-10.281 4.493s-10.017 6.61-9.226 13.746l42.177-5.815 29.26-29.606" mask="url(#n3fznp1q4d)"/>
                            <path fill="#6FA542" d="M386.08 88.428s-12.917-4.23-37.432-2.38c-24.78-.792-40.069 11.367-40.069 11.367l-57.202 49.695s-20.034 23.526-49.031 21.675c-28.733 5.551-36.905 25.641-36.905 25.641l220.639-.264V88.428" mask="url(#n3fznp1q4d)"/>
                            <path fill="#1B223A" d="M56.591 222.019L36.037 146.034 41.055 127.363 38.535 126.808 33.231 136.95 -3.436 37.484 -2.851 91.193 34.26 231.378 56.591 222.019" mask="url(#n3fznp1q4d)"/>
                            <path fill="#82B84B" d="M385.719 102.438s-23.198-7.93-35.851-5.023c-12.653 2.908-20.561 8.194-20.561 8.194s-14.498 8.46-20.561 28.02c-8.436 17.974-13.708 24.319-13.708 24.319s-11.335 17.71-35.85 20.617c-24.516 2.909-37.433-.792-37.433-.792s-34.005-3.701-50.876 16.389h214.84v-91.724" mask="url(#n3fznp1q4d)"/>
                            <path fill="#36B086" d="M373.547 105.295s-23.655 17.192-25.607 25.678c-2.496 6.42.434 6.855.434 6.855s5.859-1.414 11.176-11.316l1.953-3.808s2.17-2.829.76 2.394c-1.41 5.223-.543 5.875-.543 5.875s2.279 1.088 3.58-4.243l1.194-3.7s1.194 3.591 2.496-.435c.76-4.243.976-10.663 2.822-13.057 1.518-3.046 1.735-4.243 1.735-4.243M370.315 84.186s-10.525 10.555-21.375 15.45c-10.851 4.898-11.394 4.353-14.975 9.14 0 0-2.17 5.115 5.317 3.592 7.379-2.721 13.781-9.793 13.781-9.793s-2.279 3.373-1.52 4.678c.76 1.306 4.883-2.393 4.883-2.393l5.535-6.42s-1.737 5.44 1.952 3.373c3.039-3.373 5.969-14.797 6.402-17.627" mask="url(#n3fznp1q4d)"/>
                            <path fill="#DADAD5" d="M328.445 194.172l5.704-9.24s1.902-4.106 6.143-4.839c4.241-.733 8.19-1.76 8.19-1.76s4.827-2.346 9.215 2.347c4.387 4.693 7.02 3.52 7.02 3.52s4.972-.88 7.459 2.786c2.486 3.666 2.047 7.04 2.047 7.04l-45.778.146" mask="url(#n3fznp1q4d)"/>
                            <path fill="#1B223A" d="M385.843 251.974l1.222-199.09s-15.54-1.673-19.293 7.704c-2.308 5.792-.586 10.484-.586 10.484l4.296 20.146s9.738 46.088-1.263 105.397c-2.602 11.862-9.836 47.999-20.216 64.543l35.84-9.184" mask="url(#n3fznp1q4d)"/>
                            <path fill="#FDFDFD" d="M118.202 73.104s-3.665-4.455-5.664-4.566c-2-.112-4.11 0-4.887-1.003-.778-1.002-2.999-2.673-5.109-2.227-2.11.445-5.442-2.674-5.442-2.674s-4.11-4.788-9.107-4.009c-4.999.78-6.887 2.116-8.997 4.9 0 0-1.333 3.453-2.444 3.12-1.11-.335-1.888-2.228-3.887-2.117-1.999.112-3.443 1.67-3.443 1.67s-.777.335-1.888-1.225c-1.11-1.559-3.11-3.898-6.664-3.898s-6.553 1.894-6.553 1.894-2.332 1.893-2.332 2.561c0 .669-1.222 3.12-2.777 1.337-1.222-2.116-2.888-3.118-2.888-3.118s-3.554-1.448-6.108 1.781c-2.555 3.23-1.333 3.787-4.665 6.237s4.887 1.671 4.887 1.671l77.968-.334" mask="url(#n3fznp1q4d)"/>
                            <path fill="#7BC7C6" d="M32.49 225.64s-1.546-13.38-18.563-17.453c0 0-4.835-1.163-5.608.388.387 1.357 1.74 1.163 1.74 1.163s3.674.389 2.514 8.92c.194 4.072 2.708 3.684 2.708 3.684s7.928.388 7.541 3.297c0 0 .194 5.817.967 8.338.774 2.52 3.094 3.684 3.094 3.684s-.387-8.92 5.608-12.022" mask="url(#n3fznp1q4d)"/>
                            <path fill="#853838" d="M267.244 85.206h11.654s.64-5.375-1.025-7.295-2.049-3.2-.64-4.351c1.409-1.152 2.69 1.536 2.69 1.536s1.408.896 4.097-1.28c0 0 1.025-.768 1.538-1.92l2.049 1.536s1.536-3.712-2.05-6.272c-3.586-2.559-6.659-1.663-6.659-1.663s-2.946.512-3.586 1.28c0 0-.512-4.352-3.073-4.224-2.562.128-2.946 1.92-2.946 1.92s-1.153 2.815 1.537 4.735l1.92 1.28s-.384 3.072-1.792 3.712c-1.408.64-3.202 1.536-2.306 4.863.898 3.328.257 5.248-1.408 6.143" mask="url(#n3fznp1q4d)"/>
                            <path fill="#F3BA9F" d="M280.28 88.026l1.794-4.237s3.458 1.926 4.866-2.312c0 0 .512-1.156.512-2.183 0 0 2.05 0 1.153-1.412 0 0-1.153.128-.896-2.312l-.128-2.183-2.05-1.542s-1.81 3.647-5.356 3.228c-.15-.018-.273-.131-.355-.258-.48-.747-2.364-3.228-3.52-.043 0 0-.146 2.16 2.085 4.022 0 0 1 2.683.487 6.407h-6.275l-.128 1.284 7.812 1.541" mask="url(#n3fznp1q4d)"/>
                            <path fill="#248964" d="M292.964 210.623l10.84-6.916s5.172-2.224 2.216-9.881c-2.217-8.399-7.39-26.925-7.39-26.925l-7.883-17.786-9.296-20.174s-4.796.988-6.044-.527c-1.25-1.516-2.144-2.935-2.144-2.935l-14.152-.36s-.394 5.667 2.168 11.136c2.169 5.864 4.469 12.585 4.469 12.585l4.6 14.957s-2.629-1.714-5.258-.593c-2.628 1.12-5.651-2.9-5.651-2.9s-.59-3.492-4.73-4.018c0 0-2.235-.264-4.731.526-2.498.791-4.403-1.778-4.403-1.778l-2.694-2.57-3.482 9.884s-1.972 4.677-.986 5.995c.986 1.318 1.117 1.647 7.753 3.36 6.636 1.714 14.39 3.163 14.39 3.163s9.401 1.654 14.14.991c4.738-.662 6.721-.773 9.145-2.762l1.874 3.204s1.983 3.646 1.432 6.74c-.55 3.094-.771 6.74 1.984 10.83 2.755 4.087 2.645 4.64 2.645 4.64s.44 1.216 0 3.204c-.441 1.99 0 4.973 0 4.973l1.188 3.937" mask="url(#n3fznp1q4d)"/>
                            <path fill="#C7442B" d="M259.304 190.034c0-.686-1.368-5.945-1.368-5.945l-5.473 2.744-5.244 6.402.228 5.487 4.332 2.286 4.56-1.6 2.509-4.115.456-5.26" mask="url(#n3fznp1q4d)"/>
                            <path fill="#E46C3B" d="M264.821 186.22s-3.383-3.99-5.903-4.256c-2.52-.266-4.71 1.862-4.71 1.862l-2.056 1.862-2.055 2.66-2.057 2.595 1.061.332s1.791-1.463 3.914-3.857c2.122-2.395 4.178-1.397 4.178-1.397s1.924 1.197 1.592 3.924c-.331 2.727-.464 5.121-.464 5.121s4.114-.046 4.114-4.036c0 0 .197-4.477 2.386-4.81" mask="url(#n3fznp1q4d)"/>
                            <path fill="#F2B229" d="M251.489 199.921s1.79 2.262 1.592 5.787c-.199 3.525 2.72.532 2.72.532s2.586-1.862 2.52-5.188c0 0 .199-1.796-1.393-3.392 0 0-1.062 2.328-5.44 2.261" mask="url(#n3fznp1q4d)"/>
                            <path fill="#F3B429" d="M245.387 192.739l1.99 1.73s.066-1.598 1.724-3.194l-1.06-.332-.73.532v-3.126s-.332-2.328-1.725-.2c0 0-.53 1.397.066 2.727 0 0-2.52-1.13-2.918-.665-.398.465-.066.865-.066.865s1.061.865 3.316.997l-.597.666" mask="url(#n3fznp1q4d)"/>
                            <path fill="#151414" d="M233.241 194.637s7.755-.475 8.153-.475c.398 0 3.504-.575 4.168-1.64l1.935 1.706s-.664 2.328 1.525 4.19c0 0 .11 2.01-2.941 2.343-1.796.458-3.524-1.89-3.524-1.89s-.782-1.643-3.568-1.31c-2.785.332-3.213-.156-3.213-.156s-1.657-.546-2.535-2.768" mask="url(#n3fznp1q4d)"/>
                            <path fill="#B3AE9E" d="M257.821 203.387s3.704.825 2.676 2.991c-.31 1.445-2.573 3.302-2.573 3.302l-3.498 3.611-2.366-.929 2.16-4.333-1.749-.516.926-.722s1.044 1.329 2.631-.78c1.588-2.109 1.793-2.624 1.793-2.624" mask="url(#n3fznp1q4d)"/>
                            <path fill="#F0EADC" d="M272.183 191.01s.332 3.458-5.837 3.79c-6.168.333-8.663 3.79-8.663 3.79l-.755-.93s1.327-1.13 1.393-2.594c0 0 2.653-.066 3.316-2.195.663-2.128 1.26-5.054 1.26-5.054s.465-1.33 1.924-1.596l1.46 1.063s3.249 2.262 4.708 2.063c1.46-.2 1.194 1.662 1.194 1.662" mask="url(#n3fznp1q4d)"/>
                            <path fill="#161412" d="M273.871 189.506h-4.244s-.067 1.796 1.99 2.128c2.056.333 2.254-2.128 2.254-2.128" mask="url(#n3fznp1q4d)"/>
                            <path fill="#F0EADC" d="M251.83 199.887c-.126.008-.254.013-.365-.024-.806-.27-1.62-.56-2.333-1.034-.052-.034-.086-.081-.131-.12-.688 1.552-1.863 1.602-3.253 1.915-1.476.333-2.331-1.158-3.566-2.396-1.029-1.445-2.778-.516-5.453-.723-2.675-.206-3.45-2.867-3.45-2.867l-1.077-.021c.926 3.404-3.602 5.57-3.602 5.57s-3.91.517-4.63-.515c-.72-1.032-2.778-1.96-2.778-1.96s-1.465-.882-3.253-4.936c-.093-.21-.154-.453-.178-.681-.708-6.838-1.67-3.03-1.67-3.03s-.558.6-.249 3.901c.309 3.301 2.264 7.222 2.881 7.635 3.721 2.487-.72 9.904-.72 9.904l1.544 9.39 3.291.103 1.235-7.739c4.425 0 5.145-1.96 5.145-1.96 8.394 2.182 12.347 1.135 12.347 1.135l-1.235 8.46 4.219-.102 2.88-9.287s4.014-1.444 5.968-3.714c.626-2.779-1.102-6.084-1.567-6.904" mask="url(#n3fznp1q4d)"/>
                            <path fill="#151414" d="M232.537 194.617s-8.55-.34-11.291 3.128l1.821 1.21c.1.067.193.144.28.225.57.534 3.002 2.578 5.506 1.113 2.86-1.674 3.326-1.85 3.684-5.676" mask="url(#n3fznp1q4d)"/>
                            <path fill="#C0BEAF" d="M242.347 208.536s-3.325.248-7.795-4.026c-4.47-4.275-8.1.574-8.1.574s-1.574 3.003-1.574 6.889l17.076-.399.393-3.038" mask="url(#n3fznp1q4d)"/>
                            <path fill="#B3AE9E" d="M223.992 212.434l.595.047 3.065 7.171 1.339.036s1.092-6.147.105-9.327c0 0-2.52 2.132-5.058 1.46l-.046.613" mask="url(#n3fznp1q4d)"/>
                            <path fill="#1A1919" d="M261.924 187.494c0 .367-.186.664-.416.664-.23 0-.417-.297-.417-.664 0-.367.187-.665.417-.665.23 0 .416.298.416.665" mask="url(#n3fznp1q4d)"/>
                            <path fill="#F2B229" d="M121.655 85.396s-8.63 4.216-21.467 20.195c-12.616 13.76-13.501 15.313-13.501 15.313s-2.143 3.317 2.275 5.816c0 0 .792-4.43 4.19-3.18 3.512.795 21.635 4.429 21.635 4.429s4.19 1.704 5.776-3.52c1.586-5.225 3.511-7.61 3.511-7.61l3.172-4.43 7.022 10.222s1.36 2.272 3.285 3.067c1.925.795 6.343 1.363 6.343 1.363l12.232 1.817 1.586.227 21.294 6.815 5.097-6.929-32.167-14.765-20.048-24.42s-4.725-5.868-10.235-4.41" mask="url(#n3fznp1q4d)"/>
                            <path fill="#2044DB" d="M119.387 126.72l27.162 20.636s10.406 7.513 1.873 17.113c-6.868 11.27-15.193 24.835-15.193 24.835l-9.365 12.522-2.516-.818 8.783-26.078s2.067-2.762-1.033-8.807c0 0 3.444-2.935 4.65-8.116l-11.367-7.427-10.268-23.341s5.398 1.19 7.274-.52" mask="url(#n3fznp1q4d)"/>
                            <path fill="#F3BA9F" d="M135.092 95.053l3.78-4.679s-4.67-2.34-3.558-8.422c0 0-.889 2.574-5.336 1.404l-2.224 3.51s7.782 6.55 7.338 8.187M138.064 76.848l-.061 6.546s1.029 2.748 3.449.589c2.42-2.16 5.93.458 5.93.458l.208.41s1.365-.083 1.547-.083c.181 0 1.316-.955-.136-1.871l-.739-.337.088-5.45s-2.541-.196-3.147-.981c-.786-.655-2.722-1.898-2.722-1.898s.242 2.552-1.392 2.487c-1.331.327-3.025.13-3.025.13" mask="url(#n3fznp1q4d)"/>
                            <path fill="#ED9A80" d="M138.119 80.85s3.937.232 5.095 2.09c0 0-2.142.755-2.49 1.277-.347.522-1.62.232-1.62.232s-.985-.349-.985-1.161v-2.439" mask="url(#n3fznp1q4d)"/>
                            <path fill="#F4BB9E" d="M135.235 82.185l1.61-4.703s-2.17-1.51-4.34.755c0 0-1.61 2.96 2.73 3.948" mask="url(#n3fznp1q4d)"/>
                            <path fill="#171E2C" d="M135.224 82.243s-1.777 2.509-5.505 1.63c0 0-.657-6.818 1.754-11.655 0 0 1.755-2.64 3.07-2.2 0 0 .22-2.858 3.509-4.397 3.29-1.54 5.263 1.32 5.263 1.32s5.703-2.414 7.017.439c0 0 .877.66.439 2.419 0 0 3.07.88 2.63 4.618-.438 3.738-5.043 4.397-5.043 4.397l-.165-1.42s-3.647-.725-5.732-2.496c0 0-.057 2.352-1.91 2.41-1.853.058-2.432-.232-2.432-.232l-.058 5.922s.695 2.612 3.474.58c2.78-2.032 6.138.639 6.138.639s.23 4.819-3.127 6.677c-3.359 1.857-8.222-1.975-8.222-1.975s-2.663-3.25-.637-8.186l.869-3.135s-1.158-1.335-3.011-.174c-.96.601-1.112 1.53-1.035 2.285.085.841.607 1.562 1.339 1.982.379.218.848.432 1.375.552M198.86 179.997c-19.216 0-34.793 15.62-34.793 34.888 0 19.27 15.577 34.89 34.792 34.89 19.216 0 34.793-15.62 34.793-34.89 0-19.268-15.577-34.888-34.793-34.888zm38.81 34.713c0 21.458-17.346 38.852-38.745 38.852-21.398 0-38.745-17.394-38.745-38.852 0-21.457 17.347-38.853 38.745-38.853 21.399 0 38.746 17.396 38.746 38.853z" mask="url(#n3fznp1q4d)"/>
                            <path fill="#D3D7DB" d="M199.219 183.606c-17.315 0-31.352 14.075-31.352 31.438s14.037 31.438 31.352 31.438c17.314 0 31.351-14.075 31.351-31.438s-14.037-31.438-31.351-31.438zm34.972 31.28c0 19.335-15.631 35.01-34.913 35.01-19.283 0-34.914-15.675-34.914-35.01 0-19.336 15.631-35.01 34.914-35.01 19.282 0 34.913 15.674 34.913 35.01z" mask="url(#n3fznp1q4d)"/>
                            <path fill="#B6B7B3" d="M206.583 213.05c0 4.168-3.37 7.547-7.526 7.547s-7.526-3.38-7.526-7.547c0-4.168 3.37-7.547 7.526-7.547 4.157 0 7.526 3.379 7.526 7.547" mask="url(#n3fznp1q4d)"/>
                            <path fill="#B6B7B3" d="M222.056 222.314c-3.027 9.668-12.034 16.681-22.674 16.68-6.561 0-12.5-2.666-16.801-6.978-4.3-4.312-6.96-10.268-6.96-16.848 0-5.631 1.949-10.805 5.206-14.884l-.192-.154c-3.291 4.12-5.26 9.35-5.26 15.038 0 13.295 10.748 24.073 24.007 24.073 10.751 0 19.85-7.085 22.909-16.853l-.235-.074" mask="url(#n3fznp1q4d)"/>
                            <path fill="#E46C3B" d="M169.702 147.304l-4.398 2.335 28.859 59.426c.067.141.13.277.19.42.416.983 2.551 5.655 5.102 4.493 2.587-1.297 2.328-2.076-1.552-9.08-3.881-7.005-28.2-57.594-28.2-57.594" mask="url(#n3fznp1q4d)"/>
                            <path fill="#171E2C" d="M97.468 152.944c-1.035-1.557-4.14-6.486-4.14-6.486s.26 1.816-5.174-3.373c-5.691-3.891-8.796 2.335-8.796 2.335s-1.293 3.892 1.552 6.746c0 0 1.836 1.6 7.762.778 6.727.26 8.796 0 8.796 0" mask="url(#n3fznp1q4d)"/>
                            <path fill="#C6C6C1" d="M169.51 147.122l-3.027 1.803-1.389-3.14s-.645-2.442.397-3.78c1.042-1.337 7.096-8.547 7.096-8.547l4.267 1.396.546-.989 3.672 1.047v.93l-5.905.175-6.103 7.326s-.54.496-.248 1.86c.05.233.694 1.92.694 1.92" mask="url(#n3fznp1q4d)"/>
                            <path fill="#E46C3C" d="M128.06 163.959L129.616 167.6 168.563 154.807 166.904 151.114 128.06 163.959" mask="url(#n3fznp1q4d)"/>
                            <path fill="#E7E7E9" d="M130.34 213.505l-.052 1.82 3.163.052s-1.296-1.508-3.111-1.872" mask="url(#n3fznp1q4d)"/>
                            <path fill="#E46C3A" d="M170.052 153.508L155.323 159.861 120.005 206.234 126.815 208.299 141.702 189.559 170.052 153.508" mask="url(#n3fznp1q4d)"/>
                            <path fill="#C6C6C1" d="M88.807 153.708L92.608 153.708 97.835 167.525 94.192 168.954 88.807 153.708" mask="url(#n3fznp1q4d)"/>
                            <path fill="#E46C3B" d="M93.638 168.711L98.39 167.282 109.318 197.298 106.625 204.921 93.638 168.711" mask="url(#n3fznp1q4d)"/>
                            <path fill="#E46C3B" d="M95.941 173.287L97.525 177.734 69.809 213.627 66.324 210.768 95.941 173.287" mask="url(#n3fznp1q4d)"/>
                            <path fill="#E46C3B" d="M70.218 209.404L70.218 213.057 100.31 214.963 100.944 211.469 70.218 209.404" mask="url(#n3fznp1q4d)"/>
                            <path fill="#DE4D31" d="M168.279 156.346L167.487 154.916 156.242 158.886 152.757 163.651 168.279 156.346" mask="url(#n3fznp1q4d)"/>
                            <path fill="#F3BA9F" d="M183.713 128.913l6.878 2.348s2.927.734.878 3.962c-1.463 3.375-3.22 7.044-5.268 7.485-2.05.44-2.78-4.843-2.78-4.843l-.44-2.055-3.366-.733 4.098-6.164" mask="url(#n3fznp1q4d)"/>
                            <path fill="#B6B7B3" d="M76.212 213.359c0 3.627-2.932 6.567-6.55 6.567-3.617 0-6.55-2.94-6.55-6.567 0-3.628 2.933-6.568 6.55-6.568 3.618 0 6.55 2.94 6.55 6.568M130.042 214.182c0 4.391-3.551 7.952-7.93 7.952-4.38 0-7.93-3.56-7.93-7.952 0-4.392 3.55-7.952 7.93-7.952 4.379 0 7.93 3.56 7.93 7.952" mask="url(#n3fznp1q4d)"/>
                            <path fill="#B9B9B4" d="M121.734 201.353L123.552 202.015 122.561 203.672 121.073 203.672 121.734 201.353" mask="url(#n3fznp1q4d)"/>
                            <path fill="#1A1919" d="M122.826 225.945h-.038c-.39 0-.766-.027-1.142-.067l-.063-.013-4.697-.28-45.449-2.819-1.23-.08c-.139.067-.302.107-.49.107-.126 0-.214-.04-.314-.067-.1.027-.189.067-.302.067-.2 0-.376-.04-.527-.107-.15.067-.314.107-.502.107-.063 0-.113-.027-.176-.027l-.038-.013c-.125.013-.239.013-.364.013-4.646 0-8.427-4.007-8.427-8.963 0-4.943 3.768-8.95 8.389-8.963l.1-.027c.151 0 .302 0 .44-.013.942-.013 1.871-.053 2.8-.094.101 0 .202-.013.302-.013 1.407-.053 2.826-.093 4.245-.013l41.43-2.792h.1l4.195-.28.05-.014c.565-.093 1.13-.134 1.708-.134h.276c6.23.16 11.227 5.584 11.227 12.236 0 6.76-5.148 12.25-11.503 12.25zm.063-25.727c-.766 0-1.52.067-2.248.227l-.038.013-52.356 3.513h-.1c-.2-.026-.402-.04-.603-.04-5.124 0-9.28 4.422-9.28 9.872 0 5.463 4.156 9.885 9.28 9.885.1 0 .189 0 .29-.013v.066l53.234 3.3c.59.093 1.206.147 1.821.147 6.995 0 12.672-6.038 12.672-13.492 0-7.44-5.677-13.478-12.672-13.478z" mask="url(#n3fznp1q4d)"/>
                            <path fill="#3A5AFD" d="M114.246 223.369l-11.366-2.073 10.505-45.074-21.872-32.638s-5.683-7.254-5.166-11.917c.516-4.662 1.894-7.598 1.894-7.598s.871-1.499 6.028-.345c5.33 1.191 12.977 2.353 12.977 2.353l5.214 1.046 18.147 42.883s1.55 1.382-1.894 10.88c-3.445 9.498-14.467 42.483-14.467 42.483" mask="url(#n3fznp1q4d)"/>
                            <g mask="url(#n3fznp1q4d)">
                                <g transform="translate(20.054 191.01)">
                                    <mask id="dwp7gtvw6f" fill="#fff">
                                        <use xlink:href="#4mwmnkorbe"/>
                                    </mask>
                                    <use fill="#F3B42C" xlink:href="#4mwmnkorbe"/>
                                    <path fill="#F8D377" d="M13.82.63L13.657 4.133 13.781 4.139 13.943.636M9.014 0L7.714 2.362 7.822 2.422 9.122.06M12.026 5.425L10.888 7.054 10.989 7.125 12.127 5.495M18.045 7.231L16.014 9.757 16.11 9.834 18.141 7.309M17.46 13.854L14.21 15.809 14.273 15.915 17.523 13.959M12.89 11.553L11.428 13.263 11.522 13.344 12.984 11.633M6.622 9.731L8.49 11.279 8.569 11.184 6.7 9.636M4.877 15.087L3.008 16.879 3.094 16.968 4.962 15.176M6.013 4.897L7.637 6.77 7.731 6.69 6.106 4.816M6.018 13.349L8.618 15.712 8.701 15.621 6.101 13.258M0 9.125L2.762 11.732 2.847 11.642.085 9.035M1.736 2.011L3.605 4.292 3.7 4.214 1.832 1.933" mask="url(#dwp7gtvw6f)"/>
                                </g>
                            </g>
                            <path fill="#36B086" d="M271.13 125.406l5.633.188s9.015 21.846 9.766 31.45c1.69 9.229 1.315 17.327-9.39 18.457-10.705 1.13-20.659-1.13-20.659-1.13l-14.837-3.767s-5.258-.565-3.38-6.215c0 0 5.07 1.695 9.766-.188 4.695-1.884 7.325.188 7.325.188s6.948 8.475 17.841 6.403c10.893-2.07-3.005-20.527-3.005-20.527s-3.192-5.838.94-24.859" mask="url(#n3fznp1q4d)"/>
                            <path fill="#FFF" d="M128.7 165.967s4.256 5.548.284 12.517c0 0-5.248-2.134-4.822-6.685.425-4.551 4.538-5.832 4.538-5.832" mask="url(#n3fznp1q4d)" opacity=".27"/>
                            <path fill="#795EC5" d="M273.263 125.48l-14.6-.386s-2.177-.642-1.153-4.752l.513-1.284s-3.458-.514-4.738-5.65c0 0-.64-3.725 1.152-6.165 1.793-2.44 5.379-6.164 5.379-6.164s-2.177-3.467.128-8.733c2.306-5.264 9.22-6.42 9.22-6.42s12.552-.386 16.009 7.448c0 0 4.995 4.751-.384 18.236l.512 5.778 18.698-6.42 2.818 6.806s-9.093 5.907-18.698 8.86l-6.02 2.056s-5.634 1.412-8.836-3.21" mask="url(#n3fznp1q4d)"/>
                            <path fill="#40337D" d="M273.014 123.443s8.942-5.977 11.922 3.363c0 0-8.942 5.978-11.922-3.363M300.768 112.149l3.193-1.13 2.629 6.59s-2.066 2.073-2.254 1.508c-.187-.565-3.568-6.968-3.568-6.968" mask="url(#n3fznp1q4d)"/>
                            <path fill="#604F90" d="M268.202 124.532l4.696.377s-3.193-12.995-2.63-21.657c0 0-3.756 10.546-2.066 21.28" mask="url(#n3fznp1q4d)"/>
                            <path fill="#EB8E2D" d="M129.321 109.093l-2.152 2.698 7.532 11.329s2.152 3.777 10.402 3.777c7.532 1.438 11.119 1.798 11.119 1.798l-12.733-4.136s-4.125-1.979-14.168-15.466" mask="url(#n3fznp1q4d)"/>
                            <path fill="#ED9F2D" d="M125.888 114.053s3.765-3.956 3.586-4.675c-.18-.72-4.842-6.475-4.842-6.475l1.256 11.15" mask="url(#n3fznp1q4d)"/>
                            <path fill="#EC952D" d="M180.856 127.55L183.7 128.834 178.864 135.823 175.451 134.967 180.856 127.55" mask="url(#n3fznp1q4d)"/>
                            <path fill="#F3BA9F" d="M305.133 112.267l2.275-1.52s2.881-3.65 3.64-2.737c1.212-.609 3.487-1.825 4.549 1.824 1.061 3.65-1.214 5.019-1.214 5.019l-5.307 1.824-1.971 1.065-1.972-5.475" mask="url(#n3fznp1q4d)"/>
                            <path fill="#ED9D82" d="M309.732 110.024s.093-.122.258-.313c.493-.575 1.63-1.766 2.743-2.099l-.036-.118c-1.547.47-3.059 2.452-3.063 2.455l.098.075" mask="url(#n3fznp1q4d)"/>
                            <path fill="#EFA588" d="M312.9 109.734L315.024 108.366 314.957 108.262 312.834 109.631M313.355 110.951L315.478 109.582 315.412 109.478 313.289 110.847M313.81 112.623L315.934 111.255 315.867 111.151 313.744 112.52M185.849 137.427s.01.203.01.534c.002.988-.1 3.115-.86 4.251l.104.069c.787-1.189.878-3.323.88-4.32 0-.333-.011-.539-.011-.54l-.123.006M187.408 137.725s.01.203.01.532c.002.988-.1 3.116-.859 4.253l.103.068c.787-1.189.878-3.323.88-4.32 0-.333-.01-.539-.01-.54l-.124.007M188.96 136.492s.011.203.011.532c.002.988-.1 3.117-.86 4.253l.104.069c.787-1.19.878-3.324.88-4.322 0-.332-.011-.537-.011-.538l-.124.006" mask="url(#n3fznp1q4d)"/>
                            <path fill="#171E2C" d="M191.046 134.768l7.675-7.8s2.645-1.405 3.268 1.092c.103 2.391-4.253 5.876-4.253 5.876l-3.89 3.848s-2.074 1.612-4.356 1.456c0 0 1.193-.988 1.556-4.472" mask="url(#n3fznp1q4d)"/>
                            <path fill="#0F131F" d="M146.963 80.222c0 .263-.165.476-.37.476-.203 0-.369-.213-.369-.476s.166-.476.37-.476.369.213.369.476M286.661 76.656c0 .263-.165.476-.369.476s-.37-.213-.37-.476c0-.262.166-.476.37-.476s.37.214.37.476" mask="url(#n3fznp1q4d)"/>
                            <path fill="#263055" d="M146.812 78.378c0 .293-.708.53-1.582.53-.874 0-1.582-.237-1.582-.53 0-.292.708-.528 1.582-.528.874 0 1.582.236 1.582.528" mask="url(#n3fznp1q4d)"/>
                            <path fill="#692B2D" d="M287.186 74.583c.036.233-.43.498-1.041.593-.61.095-1.136-.017-1.171-.25-.036-.232.43-.497 1.04-.592.612-.095 1.136.016 1.172.25" mask="url(#n3fznp1q4d)"/>
                            <path fill="#BD7160" d="M143.966 85.643c.001.002.257.335.627.67.372.334.856.675 1.336.677.074 0 .147-.008.22-.026l-.03-.12c-.062.016-.125.023-.19.023-.419.003-.892-.318-1.253-.646-.18-.163-.334-.327-.442-.45-.108-.122-.17-.203-.17-.203l-.098.075" mask="url(#n3fznp1q4d)"/>
                            <path fill="#EA937A" d="M285.015 80.86l.986.917.006.004c.006.004.214.127.563.127.117 0 .249-.014.394-.05l-.03-.12c-.135.034-.257.047-.364.047-.16 0-.286-.028-.373-.057l-.097-.038-.03-.015-.032.053.042-.045-.981-.914-.084.09" mask="url(#n3fznp1q4d)"/>
                            <path fill="#F4BC9E" d="M302.603 203.549L299.442 205.845 303.149 204.861 302.603 203.549" mask="url(#n3fznp1q4d)"/>
                            <path fill="#FFF4EC" d="M303.149 204.861L299.769 205.845 296.825 207.812 297.698 210.545 304.457 208.468 303.149 204.861" mask="url(#n3fznp1q4d)"/>
                            <path fill="#E0E0DB" d="M314.595 215.246s-.436-1.203-.981-1.421c0 0-13.845 4.372-13.518 4.482.327.109 5.342 0 5.669 0 .327 0 8.83-3.06 8.83-3.06" mask="url(#n3fznp1q4d)"/>
                            <path fill="#E8ECE7" d="M304.784 208.031c-.327.11-5.451 3.717-6.323 5.466l1.635 4.919 13.518-4.482s-2.071-1.202-5.015-1.858c-2.943-.656-3.815-4.045-3.815-4.045" mask="url(#n3fznp1q4d)"/>
                            <path fill="#E0E0DC" d="M297.588 210.436l.873 2.952 5.45-4.81s-5.669 1.093-6.323 1.858" mask="url(#n3fznp1q4d)"/>
                            <path fill="#B4B5B0" d="M304.043 211.15L307.204 209.947 307.16 209.832 303.999 211.035M304.696 212.243L308.403 210.853 308.359 210.737 304.653 212.128" mask="url(#n3fznp1q4d)"/>
                            <path fill="#F3BA9F" d="M240.753 160.261L238.468 159.37 236.437 166.116 238.849 166.88 240.753 160.261" mask="url(#n3fznp1q4d)"/>
                            <path fill="#FFF4EC" d="M234.914 158.097L238.468 159.37 236.437 166.116 232.883 164.716 234.914 158.097" mask="url(#n3fznp1q4d)"/>
                            <path fill="#E0E0DB" d="M234.982 158.127s-2.38-1.331-2.39-.95c-.009.382.325 7.52.325 7.52l2.065-6.57" mask="url(#n3fznp1q4d)"/>
                            <path fill="#E1E1DC" d="M227.589 155.543l-1.346-.559-4.919 14.333s1.16.652 1.578.046c.417-.604 4.687-13.82 4.687-13.82" mask="url(#n3fznp1q4d)"/>
                            <path fill="#FFFFFE" d="M232.938 165.388l-.266-8.282-5.204-1.608-4.538 13.84s.094.557 2.776-1.967c2.681-2.523 7.232-1.983 7.232-1.983" mask="url(#n3fznp1q4d)"/>
                            <path fill="#9F9E99" d="M230.731 164.043L230.082 166.462 230.201 166.494 230.85 164.075M229.913 163.578L228.967 167.114 229.087 167.146 230.032 163.609" mask="url(#n3fznp1q4d)"/>
                            <path fill="#0A0B09" d="M383.572 67.159c-.001.027-.05.16-.139.331-.334.66-1.217 2.033-2.384 3.74-1.75 2.564-4.145 5.898-6.333 8.823-2.187 2.923-4.175 5.445-5.087 6.359l.262.26c.68-.682 1.887-2.165 3.327-4.033 2.158-2.799 4.83-6.454 6.965-9.506 1.067-1.525 2-2.9 2.667-3.943.333-.521.6-.96.787-1.295.093-.168.165-.31.217-.427.05-.12.085-.202.088-.31h-.37M385.229 89.545h.037l-.037-.003v.003h.037l-.037-.003c.003.005-.035.125-.113.278-.293.591-1.102 1.859-2.176 3.442-1.613 2.378-3.832 5.486-5.861 8.215-2.028 2.728-3.876 5.084-4.72 5.934l.263.26c.63-.635 1.744-2.011 3.073-3.745 1.993-2.6 4.46-5.993 6.43-8.826.986-1.417 1.847-2.693 2.463-3.662.308-.484.555-.89.727-1.203.086-.156.154-.288.201-.398.047-.112.08-.189.083-.292h-.37" mask="url(#n3fznp1q4d)"/>
                            <path fill="#443A7B" d="M283.426 101.726L285.002 117.529 285.125 117.516 283.549 101.714" mask="url(#n3fznp1q4d)"/>
                            <path fill="#443A7B" d="M292.445 116.248L278.464 118.525 278.484 118.647 292.465 116.37M270.141 98.762c0 .002-.09 1-.09 2.876 0 2.5.16 6.56.909 11.907l.122-.017c-.748-5.34-.908-9.395-.908-11.89 0-.936.023-1.653.045-2.135.023-.482.045-.729.045-.73l-.123-.01M264.617 95.89s.037.36.074.97c.036.608.073 1.464.073 2.452.002 3.126-.375 7.576-2.259 9.658l.046.041.029-.054-2.782-1.477-.058.109 2.824 1.5.033-.036c1.927-2.143 2.288-6.604 2.29-9.741 0-1.981-.147-3.433-.147-3.435l-.123.012" mask="url(#n3fznp1q4d)"/>
                            <path fill="#EEF7F6" d="M286.312 82.898s.038.13.076.346c.039.215.077.514.077.844-.002.848-.247 1.888-1.37 2.33-2.093.82-2.102 2.563-2.1 2.572h.062l-.062-.007-.268 2.156.122.015.27-2.16v-.004l.003-.07c.03-.327.242-1.69 2.018-2.388 1.189-.466 1.45-1.578 1.449-2.444 0-.68-.157-1.221-.158-1.225l-.119.035" mask="url(#n3fznp1q4d)"/>
                            <path fill="#EEF7F6" d="M283.234 88.97c0-.003.223-1.145.223-2.481-.001-1.26-.194-2.696-.982-3.522-.79-.826-1.464-1.544-1.941-2.055-.478-.512-.756-.816-.757-.816l-.09.083s1.117 1.22 2.7 2.873c.746.778.948 2.19.947 3.437 0 .661-.056 1.276-.11 1.726-.056.448-.111.73-.111.73l.12.024" mask="url(#n3fznp1q4d)"/>
                            <path fill="#EEF7F6" d="M278.97 77.45s1.254-1.168-.538-1.348c0 0-.986.45-.358 2.336.627 1.887 1.792 1.976 1.792 1.976l.247-.324s-1.848-.63-1.144-2.64" mask="url(#n3fznp1q4d)"/>
                            <path fill="#344266" d="M369.718 59.263c.001.001 2.215 4.44 5.328 9.782 3.114 5.342 7.125 11.586 10.736 15.208l.174-.174c-3.579-3.588-7.589-9.824-10.697-15.158-1.554-2.668-2.885-5.11-3.826-6.885-.47-.888-.844-1.61-1.1-2.108-.256-.5-.393-.775-.394-.775l-.22.11M367.775 72.304c.001 0 .17.156.466.445 1.04 1.011 3.64 3.643 5.979 6.821 2.34 3.177 4.407 6.905 4.404 10.072 0 1.424-.411 2.73-1.397 3.847-.986 1.116-2.556 2.044-4.886 2.68l.065.237c2.36-.643 3.978-1.59 5.006-2.754 1.028-1.163 1.46-2.54 1.459-4.01-.005-3.739-2.744-8.102-5.471-11.55-2.729-3.446-5.454-5.967-5.457-5.969l-.168.181M385.941 106.45c-1 1.507-3.863 3.48-8.721 3.48-.944 0-1.964-.075-3.059-.242l-.036.245c1.106.168 2.138.243 3.095.243 4.926-.001 7.864-1.994 8.926-3.59l-.205-.136M375.379 113.11s.07-.017.203-.04c.396-.075 1.327-.222 2.41-.222 1.165-.001 2.502.172 3.532.777 1.029.607 1.765 1.623 1.77 3.387.003 2.69-1.767 7.115-7.015 14.216l.198.146c5.258-7.12 7.06-11.566 7.063-14.362.004-1.835-.796-2.963-1.891-3.6-1.094-.64-2.47-.81-3.657-.811-1.473 0-2.662.267-2.667.268l.054.24M385.523 129.212c-.002.002-2.324 3.539-4.648 8.187-2.324 4.65-4.652 10.405-4.654 14.878 0 .828.08 1.613.257 2.34 1.026 4.215 1.537 6.743 2.707 8.701 1.172 1.96 2.995 3.311 6.59 5.165l.112-.22c-3.586-1.85-5.354-3.173-6.49-5.072-1.14-1.899-1.654-4.412-2.68-8.633-.17-.703-.25-1.47-.25-2.281-.002-4.391 2.31-10.135 4.628-14.768 1.159-2.317 2.317-4.358 3.186-5.82.435-.73.797-1.316 1.05-1.72.254-.402.398-.62.398-.622l-.206-.135M373.058 174.24s.039 0 .118.006c.59.044 3.295.385 5.854 3.018 2.558 2.634 4.986 7.571 4.986 16.849 0 2.581-.188 5.498-.614 8.793v.005c-.452 4.777-.633 8.797-.633 12.173 0 13.5 2.891 16.693 2.922 16.727l.182-.166-.006-.006c-.141-.165-2.851-3.508-2.851-16.555 0-3.367.18-7.38.632-12.15l-.123-.012.122.016c.427-3.305.616-6.232.616-8.825 0-9.94-2.779-14.98-5.58-17.528-2.802-2.548-5.604-2.592-5.62-2.592l-.005.247M370.397 196.607s.106.09.296.264c1.327 1.215 6.637 6.495 6.63 12.576-.003 4.357-2.698 9.17-11.618 13.29l.103.225c8.965-4.133 11.764-9.042 11.761-13.515-.001-3.558-1.759-6.812-3.509-9.178-1.751-2.366-3.5-3.846-3.504-3.85l-.16.188M6.173 63.92c-.004.01-6.085 9.978-6.087 21.014 0 4.013.806 8.169 3.008 12.032 8.229 14.438 20.973 20.209 20.985 20.215l.102-.224s-.196-.089-.558-.273c-2.535-1.294-13.152-7.269-20.315-19.84-2.176-3.82-2.975-7.93-2.976-11.91 0-5.474 1.513-10.698 3.026-14.552.758-1.927 1.514-3.512 2.081-4.614.285-.551.52-.982.686-1.274.165-.293.259-.446.259-.446l-.211-.129" mask="url(#n3fznp1q4d)"/>
                            <path fill="#344266" d="M11.3 78.91c-.008.011-4.014 4.805-4.016 11.47 0 2.405.524 5.055 1.949 7.802 5.353 10.332 12.392 10.359 12.42 10.354v-.246l-.074-.003c-.756-.04-7.143-.614-12.127-10.219C8.046 95.357 7.53 92.75 7.53 90.38c0-3.282.99-6.111 1.981-8.12.495-1.005.991-1.803 1.362-2.35.186-.274.34-.485.448-.627.108-.142.168-.213.168-.213l-.19-.158M2.951 109.888l.167.106c1.645 1.064 14.912 10.086 17.012 24.292.359 2.42.51 4.8.51 7.09 0 6.037-1.05 11.451-2.098 15.355-.525 1.952-1.05 3.527-1.443 4.612-.196.543-.36.964-.474 1.249-.115.285-.18.432-.18.432l.226.1c.004-.01 4.214-9.617 4.215-21.748 0-2.3-.152-4.692-.513-7.127C18.1 118.951 3.09 109.687 3.081 109.68l-.13.209" mask="url(#n3fznp1q4d)"/>
                            <path fill="#344266" d="M6.493 122.796l.096.038c.477.195 2.662 1.154 4.841 3.187 2.18 2.034 4.355 5.137 4.833 9.635.108 1.025.157 1.968.157 2.835 0 3.641-.855 5.939-1.703 7.326-.423.694-.846 1.16-1.16 1.453-.159.146-.289.248-.379.314-.045.032-.08.056-.104.071l-.033.02.123.215c.03-.013 3.506-2.038 3.502-9.4 0-.875-.049-1.827-.158-2.86-.517-4.872-3.001-8.142-5.351-10.187-2.351-2.047-4.57-2.875-4.578-2.878l-.086.23M33.035 137.37c-.003.002-2.418 1.548-5.017 3.87-2.597 2.323-5.384 5.416-6.117 8.552l-.004.017.002.019c.098 1.431.406 2.35.838 2.92.431.572.993.778 1.536.775 1.197-.005 2.33-.929 2.34-.933l.017-.014 7.603-12.569-.211-.128-7.592 12.551.105.064-.076-.096-.048.036c-.222.169-1.203.847-2.138.843-.484-.003-.95-.168-1.34-.678-.388-.51-.692-1.383-.788-2.788l-.124.008.12.028c.704-3.037 3.457-6.117 6.041-8.423 1.291-1.154 2.539-2.116 3.463-2.79.462-.336.843-.6 1.109-.78.265-.18.414-.276.414-.276l-.133-.208M17.663 168.124c.3-.602 1.534-2.563 2.687-4.36.577-.901 1.135-1.762 1.548-2.398.413-.637.682-1.047.683-1.048l-.103-.068.014.123.012-.001.046-.002c.14 0 .49.033.805.323.313.29.611.851.612 1.962 0 1.197-.352 3.024-1.4 5.781-1.276 3.36-2.025 5.227-2.462 6.25-.22.512-.36.814-.45.984-.043.084-.075.136-.093.162l-.01.013-.003.003.066.066v-.09c-.058.005-.064.026-.066.024l.066.066v-.09.115l.081-.08-.081-.034v.114l.081-.08-.072.071.1-.02-.028-.051-.072.071.1-.02-.038.008h.04l-.001-.008-.04.008h.04l.001-.007v-.003l-.243-.04-.004.05.009.06.033.055.094.039c.06-.003.083-.028.101-.043.033-.03.055-.064.09-.12.225-.381.895-1.868 2.992-7.385 1.053-2.774 1.415-4.624 1.416-5.87 0-1.151-.314-1.794-.692-2.142-.378-.348-.797-.388-.972-.388-.052 0-.083.003-.087.003l-.057.007-.031.049s-1.078 1.646-2.233 3.447c-1.156 1.803-2.384 3.752-2.7 4.384l.221.11M39.053 160.923l-7.182 16.049.112.05-.108-.059c-.006.012-2.475 4.554-3.297 12.804l.245.025c.41-4.106 1.228-7.286 1.944-9.439.357-1.076.69-1.895.932-2.445.12-.275.22-.482.287-.62.069-.139.105-.207.105-.207l.003-.004 7.183-16.053-.224-.1M44.437 179.94c-.003.009-5.778 9.64-5.783 17.032 0 .247.007.491.02.732.205 3.73 1.556 5.727 2.867 6.777 1.31 1.05 2.566 1.157 2.581 1.158l.01-.123-.05.113c.014.007.148.062.406.062.778-.002 2.65-.494 5.893-4.209l-.186-.162c-3.221 3.692-5.042 4.126-5.707 4.124-.111 0-.191-.012-.242-.022l-.053-.015-.01-.003-.002.004.001-.004-.001.004.001-.004-.019-.009-.02-.002-.05-.006c-.256-.034-1.455-.245-2.633-1.298-1.178-1.054-2.347-2.95-2.54-6.398-.013-.237-.02-.477-.02-.719 0-3.636 1.434-7.869 2.873-11.186.719-1.66 1.439-3.09 1.978-4.106.269-.507.494-.911.651-1.188.157-.277.246-.426.246-.426l-.211-.127M34.788 208.592c.034.02.165.153.344.344 1.276 1.355 5.51 5.936 12.106 5.937 2.036 0 4.293-.437 6.752-1.538l-.101-.225c-2.43 1.087-4.651 1.516-6.651 1.516-3.7 0-6.65-1.47-8.737-2.985-1.044-.757-1.872-1.525-2.469-2.124-.298-.299-.539-.556-.72-.75-.186-.195-.3-.319-.387-.38l-.137.205" mask="url(#n3fznp1q4d)"/>
                            <path fill="#FFF" fill-opacity=".331" d="M96.004 124.313c-.002.006-.345.922-.345 2.685 0 3.085 1.052 8.762 6.817 16.693 4.523 6.223 8.508 12.769 11.363 17.758 1.427 2.495 2.57 4.601 3.358 6.084.394.74.698 1.325.905 1.725.206.4.313.614.313.614l.006.012.01.008s.041.035.116.106c.523.5 2.629 2.749 2.628 6.545 0 1.836-.492 4.037-1.896 6.582l-.004.006-9.483 33.496.12.033 9.48-33.489-.06-.016.055.03c1.413-2.561 1.911-4.783 1.911-6.642 0-4.394-2.782-6.74-2.788-6.745l-.04.047.055-.028c0-.002-6.896-13.743-15.949-26.198-5.752-7.915-6.794-13.565-6.794-16.621 0-.874.085-1.536.17-1.978.043-.222.084-.388.116-.5.032-.11.052-.164.052-.164l-.115-.043" mask="url(#n3fznp1q4d)"/>
                            <path fill="#1D6348" d="M263.3 125.754c0 .003 2.55 14.077 5.108 20.232 1.274 3.068 2.55 6.842 3.507 9.849.479 1.503.877 2.814 1.156 3.75.28.935.438 1.493.439 1.494l.059-.016-.06.015 1.021 3.84.06-.016-.061-.005s-.012.151-.064.382c-.077.346-.245.865-.594 1.292-.349.428-.873.767-1.684.768-.333 0-.715-.058-1.152-.193-2.221-.685-4.326-.799-5.483-.799-.578 0-.92.029-.921.029h-.006l-.007.002s-.025.008-.076.02c-.153.038-.53.113-1.063.113-1.243-.001-3.334-.408-5.434-2.675-3.329-3.595-6.406-4.112-6.415-4.114l-.01-.001-6.906 1.026-.005.001-.014.004c-.03.008-.113.025-.242.025-.515 0-1.787-.272-3.504-2.567l-.099.074c1.729 2.314 3.042 2.617 3.603 2.616.187 0 .29-.033.295-.035l-.02-.058.01.06 6.89-1.023-.009-.061-.01.06s.045.008.134.029c.623.145 3.318.923 6.212 4.048 2.122 2.293 4.255 2.715 5.524 2.714.726 0 1.17-.136 1.175-.138l-.018-.058.005.06c.001 0 .337-.027.911-.027 1.15 0 3.243.113 5.446.793.448.138.842.198 1.189.198 1.131.002 1.757-.645 2.085-1.282.331-.638.38-1.27.38-1.273v-.01l-1.023-3.85v-.001c-.001-.001-2.553-8.96-5.107-15.107-1.274-3.064-2.55-8.117-3.507-12.403-.478-2.142-.877-4.094-1.156-5.509-.28-1.415-.438-2.292-.438-2.294l-.122.021M287.038 160.442s.053.043.15.138c.674.666 3.412 3.859 3.413 11.924 0 .307-.004.62-.012.942-.009.322-.012.637-.012.945-.002 9.216 3.596 11.639 3.612 11.648l.035-.051-.042.046s.031.028.089.092c.406.454 2.065 2.635 2.065 8.076 0 .847-.04 1.774-.132 2.786l.062.005-.061-.01c-.001.002-.102.562-.102 1.522 0 1.199.158 3.022.87 5.162l.116-.039c-.706-2.125-.863-3.935-.863-5.123 0-.476.025-.852.05-1.109.025-.256.05-.392.05-.392v-.006c.092-1.015.133-1.945.133-2.796 0-6.246-2.181-8.25-2.194-8.26l-.003-.003-.004-.003-.037-.027c-.38-.286-3.52-2.907-3.521-11.518 0-.307.004-.62.012-.942.008-.322.012-.637.012-.945.001-9.25-3.595-12.149-3.609-12.158l-.077.096" mask="url(#n3fznp1q4d)"/>
                            <path fill="#443A7B" d="M287.069 98.328s.164.275.412.765c.744 1.47 2.23 4.87 2.23 8.508h.124c-.001-4.895-2.658-9.332-2.66-9.337l-.106.064" mask="url(#n3fznp1q4d)"/>
                            <path fill="#40337D" d="M290.878 107.601c0 .612-.494 1.108-1.105 1.108-.61 0-1.104-.496-1.104-1.108 0-.612.494-1.108 1.104-1.108.61 0 1.105.496 1.105 1.108" mask="url(#n3fznp1q4d)"/>
                            <path fill="#ACACA8" d="M342.391 178.993c.005.005 1.748 2.443 4.789 4.884 3.04 2.44 7.38 4.886 12.575 4.887 3.614 0 7.636-1.187 11.9-4.37l-.147-.198c-4.23 3.156-8.193 4.32-11.753 4.321-5.115 0-9.406-2.412-12.421-4.833-1.507-1.21-2.694-2.42-3.503-3.326-.404-.454-.715-.832-.924-1.096-.209-.264-.315-.412-.315-.412l-.2.143M334.504 184.982s.23.017.638.065c1.427.167 5.014.702 8.315 2.11 1.651.705 3.23 1.627 4.432 2.825 1.202 1.2 2.03 2.668 2.195 4.483l.245-.022c-.194-2.148-1.293-3.835-2.817-5.144-4.574-3.923-12.98-4.56-12.989-4.564l-.02.247" mask="url(#n3fznp1q4d)"/>
                            <path fill="#FFFFFE" d="M143.476 175.491l-2.114 2.827 2.29 9.012s2.115-2.12 2.115-2.65c0-.53-2.29-9.189-2.29-9.189M140.42 179.018l-2.114 2.826 2.291 9.012s2.115-2.12 2.115-2.65c0-.53-2.291-9.188-2.291-9.188" mask="url(#n3fznp1q4d)"/>
                            <path fill="#EEF7F6" d="M100.638 112.975c-.16 1.29-.203 2.492-.203 2.494l.247.009s.01-.298.04-.757c.03-.458.08-1.077.16-1.715l-.244-.03M93.382 118.573c-.975 1.006-1.785 2.009-1.787 2.01l.192.156c0-.001.2-.249.523-.623s.766-.873 1.25-1.371l-.178-.172M112.104 102.046c-.718 1.451-1.253 2.834-1.254 2.836l.23.089s.133-.343.355-.867c.222-.524.534-1.229.89-1.948l-.22-.11M115.579 108.108c-1.376.726-2.578 1.506-2.58 1.507l.134.207s.298-.194.768-.478c.47-.284 1.111-.658 1.793-1.018l-.115-.218M121.232 100.948c-1.24.648-2.322 1.346-2.324 1.347l.134.207s.268-.172.69-.426c.424-.254 1-.589 1.615-.91l-.115-.218M104.879 105.12c-1.168.476-2.18 1.002-2.182 1.003l.114.22c0-.001.25-.131.646-.32.396-.19.937-.44 1.515-.675l-.093-.228M145.432 116.008c-1.234-.466-2.398-.788-2.4-.788l-.066.237c.001 0 .289.08.73.217.443.139 1.038.334 1.65.565l.086-.231M112.694 115.716c.53 1.516 1.147 2.881 1.148 2.883l.225-.101s-.153-.34-.372-.867c-.22-.528-.506-1.244-.768-1.996l-.233.081M166.205 126.591c-1.34.117-2.57.336-2.571.336l.043.243s.305-.054.776-.123c.472-.069 1.11-.152 1.773-.21l-.021-.246M162.472 124.256c-1.814-.382-3.434-.583-3.436-.583l-.03.245s.402.05 1.03.147c.63.098 1.484.243 2.385.433l.05-.242M154.34 121.637c-.025.539-.033 1.064-.033 1.507 0 .715.02 1.217.02 1.218l.247-.01s-.02-.497-.02-1.208c0-.44.007-.961.032-1.495l-.246-.012M144.67 120.44c-.067.98-.079 1.913-.079 2.438 0 .273.003.435.003.436l.247-.005s-.003-.16-.003-.431c0-.521.011-1.45.079-2.42l-.246-.017M135.15 101.348c-.053.857-.064 1.681-.064 2.253 0 .474.007.775.007.776l.247-.007s-.008-.297-.008-.769c0-.568.012-1.388.064-2.238l-.246-.015M120.423 114.017c-.224 1.551-.305 3.007-.305 3.01l.246.013s.02-.361.068-.916.124-1.302.236-2.071l-.245-.036M105.226 120.923c-.182-.004-.363-.005-.54-.005-1.23 0-2.26.073-2.262.073l.017.246c.001 0 .255-.018.664-.036.409-.019.97-.037 1.582-.037.175 0 .354.002.534.005l.005-.246M121.326 92.307c.543 1.197 1.14 2.25 1.14 2.251l.215-.121c0-.001-.148-.261-.364-.671-.215-.41-.498-.969-.767-1.562l-.224.103M129.277 93.036c-1.523.607-2.87 1.29-2.871 1.29l.111.22c.001 0 .334-.169.859-.414.523-.245 1.237-.566 1.992-.867l-.09-.229M115.64 94.967c-.309-.009-.613-.012-.903-.012-1.203 0-2.156.06-2.158.06l.016.246s.236-.015.623-.03c.386-.015.922-.03 1.52-.03.287 0 .589.004.895.012l.007-.246M130.668 99.74c-.607-.03-1.193-.04-1.672-.04-.681 0-1.146.018-1.148.018l.01.247c.001 0 .461-.018 1.138-.018.476 0 1.058.009 1.66.04l.012-.247M139.431 107.348c-1.445.08-2.772.272-2.775.272l.036.244c.001 0 .329-.047.839-.105.509-.058 1.198-.125 1.914-.165l-.014-.246" mask="url(#n3fznp1q4d)"/>
                            <path fill="#178185" d="M27.758 209.451s2.925.57 5.525-.896c0 0-1.138 4.399-5.525.896" mask="url(#n3fznp1q4d)"/>
                            <path fill="#197C82" d="M30.805 210.365l.28 1.878c.507 3.413 1.528 10.45 1.587 11.958l.247-.01c-.042-1.034-.509-4.49-.966-7.7-.457-3.209-.904-6.162-.904-6.162l-.244.037" mask="url(#n3fznp1q4d)"/>
                            <path fill="#3C8892" d="M12.921 212.764c.028.008.052.01.1.013.318.02 1.439.026 2.851.027 3.226 0 7.956-.037 7.956-.037v-.123c-.004 0-1.184.01-2.769.018-1.586.01-3.575.019-5.187.019-.806 0-1.519-.003-2.039-.008-.26-.003-.473-.007-.624-.012-.076-.002-.137-.005-.181-.008l-.051-.004-.015-.001-.003-.001-.002.013.003-.012v-.001l-.003.013.003-.012-.039.116" mask="url(#n3fznp1q4d)"/>
                            <path fill="#6E2F2E" d="M285.118 67.2c0 .002.136 1.002.523 2.074.387 1.07 1.02 2.222 2.052 2.508l.033-.12c-.957-.257-1.589-1.37-1.969-2.43-.19-.529-.32-1.042-.401-1.422-.082-.38-.115-.626-.115-.627l-.123.017M283.34 66.113s.026.06.064.17c.116.329.347 1.097.347 1.95 0 .788-.196 1.643-.854 2.303l-2.307 2.313-1.073 1.076.087.088 3.38-3.39c.689-.69.89-1.583.89-2.39 0-1.166-.418-2.163-.42-2.167l-.113.048" mask="url(#n3fznp1q4d)"/>
                            <path fill="#743131" d="M283.747 66.319s1.646 1.875-7.59 6.462c-.362.18-5.241.18-4.157 6.104 1.085 5.924 0 6.283 0 6.283h-4.699s2.35-1.077 1.265-5.026c-1.084-3.95.723-4.847.723-4.847s3.615-1.078 3.073-4.848c0 0 .903-3.59 6.686-5.026 0 0 4.156 0 4.699.898" mask="url(#n3fznp1q4d)"/>
                            <path fill="#6E2F2E" d="M276.997 77.793c-.001.002-.112.606-.112 1.345 0 .556.062 1.188.285 1.703.163.374.222.984.221 1.624 0 .642-.056 1.316-.112 1.829-.057.513-.113.863-.113.864l.122.02c0-.002.226-1.416.226-2.713 0-.648-.055-1.266-.23-1.673-.213-.489-.276-1.108-.276-1.654 0-.363.028-.695.055-.935.028-.24.055-.387.055-.388l-.121-.022M279.667 65.506s.028.052.071.15c.13.292.39.986.39 1.82-.002 1.087-.432 2.412-2.174 3.444-3.574 2.11-3.684 3.687-3.685 3.712l.062.004-.061-.007c0 .002-.037.33-.037.856 0 .657.057 1.622.312 2.646.188.754.298 1.539.298 2.427 0 1.256-.22 2.72-.754 4.594l.118.033c.536-1.882.76-3.357.76-4.627 0-.898-.112-1.694-.302-2.457-.253-1.01-.309-1.966-.309-2.616 0-.52.036-.842.036-.843v-.002l.01-.063c.062-.305.506-1.713 3.615-3.551 1.777-1.05 2.236-2.43 2.234-3.55 0-1.147-.473-2.023-.475-2.028l-.109.058" mask="url(#n3fznp1q4d)"/>
                            <path fill="#6E2F2E" d="M275.255 66.868s.04.165.08.45c.04.287.08.693.08 1.17 0 1.431-.36 3.495-2.148 4.906-2.567 2.024-2.772 4.061-2.77 4.646 0 .106.005.165.006.167l.001.009.003.008s.067.156.167.416c.3.776.898 2.48.897 3.615 0 .311-.046.577-.147.766-.646 1.201-.647 2.127-.647 2.134h.123s0-.054.01-.156c.029-.307.147-1.036.622-1.92.117-.217.162-.501.162-.824-.002-1.561-1.073-4.075-1.073-4.079l-.057.024.061-.007s-.006-.051-.006-.153c.001-.558.189-2.548 2.725-4.55 1.83-1.444 2.194-3.553 2.194-5.003 0-.967-.162-1.644-.162-1.648l-.12.029" mask="url(#n3fznp1q4d)"/>
                            <path fill="#283854" d="M150.451 67.987l.022.087c.041.176.124.596.124 1.111s-.083 1.123-.367 1.676c-.285.554-.766 1.057-1.586 1.377l.09.23c.873-.34 1.407-.892 1.715-1.494.308-.602.394-1.248.395-1.789 0-.721-.154-1.258-.156-1.265l-.237.067M135.961 67.232c-.009.01-1.297 1.122-1.301 2.882 0 .644.176 1.37.65 2.147l.21-.129c-.452-.741-.614-1.42-.614-2.018 0-.817.304-1.492.61-1.964.153-.235.306-.42.42-.545.057-.062.104-.11.137-.141l.05-.046-.162-.186M150.653 75.705l-.007.014c-.034.074-.214.44-.587.783-.373.341-.932.661-1.746.662-.686 0-1.56-.23-2.655-.888l-.127.211c1.123.675 2.04.924 2.782.924.94 0 1.589-.402 1.992-.803.404-.4.57-.798.575-.807l-.227-.096" mask="url(#n3fznp1q4d)"/>
                        </g>
                    </g>
                    <g fill-rule="nonzero" mask="url(#rwnx4qc9ub)">
                        <g>
                            <path fill="#286BA6" d="M1.787 24.191c-.324-.773-.563-.928-1.07-1.07-.21-.055-.435-.055-.548-.055-.126 0-.169-.043-.169-.127 0-.113.155-.126.366-.126.746 0 1.547.042 2.04.042.351 0 1.026-.042 1.73-.042.168 0 .323.028.323.126 0 .099-.084.127-.21.127-.226 0-.437.014-.55.098-.098.07-.14.169-.14.296 0 .182.126.576.323 1.083l2.42 6.385h.056c.605-1.547 2.433-6.076 2.77-7.004.071-.183.127-.394.127-.52 0-.113-.056-.226-.182-.268-.17-.056-.38-.07-.563-.07-.127 0-.24-.014-.24-.113 0-.112.127-.14.395-.14.703 0 1.294.042 1.477.042.239 0 .9-.042 1.322-.042.183 0 .295.028.295.126 0 .099-.084.127-.225.127-.141 0-.436 0-.69.168-.182.127-.393.366-.773 1.267-.548 1.322-.928 2.081-1.688 3.811-.9 2.054-1.56 3.587-1.87 4.29-.366.816-.45 1.041-.647 1.041-.183 0-.268-.197-.535-.858l-3.544-8.594zM13.403 27.862c0-1.815 0-2.152-.014-2.532-.028-.408-.155-.548-.422-.633-.14-.042-.295-.056-.45-.056-.126 0-.197-.028-.197-.14 0-.07.099-.099.296-.099.464 0 1.308.028 1.66.028.309 0 1.11-.028 1.589-.028.154 0 .253.028.253.099 0 .112-.07.14-.197.14s-.225.014-.366.042c-.337.057-.436.225-.464.647-.028.38-.028.717-.028 2.532v2.11c0 1.153 0 2.11.056 2.616.043.323.127.507.493.563.168.028.45.042.633.042.14 0 .196.07.196.126 0 .085-.098.127-.239.127-.815 0-1.66-.042-1.997-.042-.281 0-1.125.042-1.618.042-.154 0-.239-.042-.239-.127 0-.056.043-.126.197-.126.183 0 .324-.014.436-.042.253-.056.324-.225.366-.577.056-.492.056-1.449.056-2.602v-2.11zM20.59 31.814c.028.928.183 1.21.422 1.294.21.07.45.085.647.085.14 0 .21.056.21.126 0 .099-.112.127-.28.127-.802 0-1.38-.042-1.604-.042-.113 0-.703.042-1.336.042-.17 0-.282-.014-.282-.127 0-.07.085-.126.197-.126.169 0 .394-.014.563-.057.323-.084.366-.407.38-1.448l.112-7.09c0-.238.085-.407.211-.407.155 0 .324.183.535.394.154.154 2.011 2.053 3.811 3.811.844.83 2.49 2.518 2.673 2.687h.056l-.127-5.317c-.014-.732-.126-.942-.422-1.055-.182-.07-.478-.07-.647-.07-.154 0-.196-.056-.196-.127 0-.098.126-.112.31-.112.646 0 1.307.028 1.574.028.141 0 .605-.028 1.21-.028.169 0 .281.014.281.112 0 .07-.07.127-.21.127-.127 0-.226 0-.38.042-.338.099-.436.31-.45.985l-.141 7.539c0 .267-.099.38-.197.38-.211 0-.38-.127-.507-.254-.773-.717-2.32-2.194-3.614-3.446-1.35-1.294-2.659-2.743-2.898-2.954h-.042l.14 4.881zM33.148 22.869c.043-.24.127-.366.24-.366.112 0 .196.07.38.436l3.84 7.933 3.825-8.031c.113-.226.183-.338.31-.338.126 0 .21.14.252.436l1.28 8.693c.127.886.268 1.294.69 1.42.408.127.69.14.872.14.126 0 .225.015.225.099 0 .113-.169.155-.366.155-.351 0-2.293-.042-2.855-.084-.324-.029-.408-.071-.408-.155 0-.07.056-.113.155-.155.084-.028.126-.211.07-.605l-.844-6.189h-.056l-3.066 6.386c-.324.661-.394.788-.52.788-.127 0-.268-.282-.493-.703-.338-.647-1.449-2.8-1.618-3.193-.126-.296-.97-2.068-1.463-3.123h-.056l-.731 5.598c-.028.253-.042.436-.042.661 0 .267.182.394.422.45.253.057.45.07.59.07.113 0 .211.029.211.099 0 .127-.126.155-.337.155-.591 0-1.224-.042-1.477-.042-.267 0-.942.042-1.393.042-.14 0-.253-.028-.253-.155 0-.07.084-.098.225-.098.113 0 .211 0 .422-.043.394-.084.506-.632.577-1.11l1.392-9.171zM47.704 27.862c0-1.815 0-2.152-.014-2.532-.028-.408-.14-.534-.534-.647-.099-.028-.31-.042-.493-.042-.126 0-.21-.042-.21-.127 0-.084.098-.112.28-.112.648 0 1.436.028 1.787.028.394 0 3.137.014 3.376 0 .225-.014.422-.056.52-.07.07-.014.14-.056.197-.056.07 0 .085.056.085.112 0 .085-.07.225-.1.774-.013.126-.041.647-.07.787-.013.057-.041.197-.14.197-.084 0-.098-.056-.098-.155 0-.084-.014-.295-.085-.435-.098-.212-.197-.38-.816-.436-.21-.029-1.687-.057-1.94-.057-.057 0-.085.042-.085.112v2.954c0 .07.014.127.084.127.282 0 1.885 0 2.166-.028.296-.028.479-.056.591-.183.099-.085.141-.155.197-.155.056 0 .099.057.099.127s-.028.267-.099.872c-.028.24-.056.717-.056.802 0 .098-.014.267-.127.267-.084 0-.112-.042-.112-.099-.014-.126-.014-.28-.042-.436-.07-.239-.225-.421-.69-.464-.225-.028-1.631-.056-1.94-.056-.057 0-.07.056-.07.127v.956c0 .408-.015 1.42 0 1.772.027.816.407 1 1.673 1 .323 0 .844-.015 1.167-.156.31-.14.45-.394.535-.886.028-.127.056-.182.14-.182.099 0 .113.154.113.28 0 .268-.098 1.084-.169 1.323-.084.31-.197.31-.66.31-.93 0-1.675-.015-2.28-.043-.604-.014-1.068-.028-1.434-.028-.14 0-.408.014-.703.014-.296.014-.605.028-.859.028-.154 0-.239-.042-.239-.127 0-.056.043-.126.197-.126.183 0 .324-.014.436-.042.253-.056.324-.282.366-.633.056-.507.056-1.45.056-2.546v-2.11zM56.705 32.306c-1.224-1.026-1.547-2.377-1.547-3.53 0-.816.267-2.222 1.448-3.277.9-.788 2.082-1.266 3.925-1.266.773 0 1.237.056 1.8.127.464.07.872.154 1.238.196.14.015.183.07.183.14 0 .1-.029.24-.057.662-.028.394-.028 1.055-.042 1.294-.014.169-.056.296-.169.296-.098 0-.126-.099-.126-.254-.014-.38-.169-.801-.479-1.11-.421-.408-1.251-.704-2.39-.704-1.084 0-1.773.197-2.336.675-.914.788-1.139 1.941-1.139 3.108 0 2.842 2.194 4.192 3.854 4.192 1.097 0 1.702-.084 2.194-.633.211-.239.38-.577.422-.802.028-.183.056-.239.155-.239.084 0 .14.113.14.211 0 .141-.14 1.182-.267 1.59-.056.21-.112.267-.323.351-.492.197-1.435.268-2.236.268-1.688 0-3.123-.352-4.248-1.295M6.514 39.884L6.988 39.884 6.988 36.909 6.514 36.909zM7.666 39.884V36.79l1.851 1.82c.098.096.204.216.317.36v-2.06h.437V40l-1.888-1.85c-.103-.101-.195-.212-.28-.334v2.068h-.437zM11.881 37.32L11.881 39.884 11.407 39.884 11.407 37.32 10.633 37.32 10.633 36.909 12.651 36.909 12.651 37.32zM13.016 39.884L13.016 36.91 14.642 36.91 14.642 37.32 13.49 37.32 13.49 38.066 14.642 38.066 14.642 38.49 13.49 38.49 13.49 39.451 14.642 39.451 14.642 39.884zM15.995 38.177h.085c.209 0 .353-.017.432-.052.128-.057.191-.175.191-.354 0-.187-.062-.313-.185-.378-.086-.046-.232-.068-.438-.068h-.085v.852zm-.028.376v1.331h-.446V36.91h.661c.342 0 .584.056.724.167.189.15.283.367.283.652 0 .481-.223.748-.668.803l1.002 1.353h-.535l-.97-1.331h-.05zM17.804 39.884V36.79l1.85 1.82c.099.096.204.216.317.36v-2.06h.438V40l-1.889-1.85c-.102-.101-.195-.212-.28-.334v2.068h-.436zM21.695 38.716h.81l-.297-.68c-.032-.072-.069-.184-.109-.337-.036.147-.072.26-.105.338l-.3.679zm1.31 1.168l-.332-.766H21.52l-.338.766h-.499l1.411-3.092 1.41 3.092h-.5zM24.632 37.32L24.632 39.884 24.158 39.884 24.158 37.32 23.384 37.32 23.384 36.909 25.402 36.909 25.402 37.32zM25.774 39.884L26.248 39.884 26.248 36.909 25.774 36.909zM29.317 38.403c0-.308-.104-.57-.31-.789-.208-.218-.459-.327-.753-.327s-.545.108-.753.324c-.208.217-.312.48-.312.792 0 .307.104.57.31.786.208.217.459.325.755.325.292 0 .542-.108.75-.325.209-.217.313-.479.313-.786m.493 0c0 .435-.152.802-.455 1.103-.308.305-.675.457-1.101.457-.431 0-.799-.152-1.103-.455-.303-.303-.455-.672-.455-1.105 0-.436.151-.805.454-1.107.302-.303.67-.453 1.104-.453.432 0 .8.151 1.103.455.302.303.453.671.453 1.105M30.087 39.884V36.79l1.85 1.82c.098.096.204.216.317.36v-2.06h.438V40l-1.889-1.85c-.102-.101-.196-.212-.28-.334v2.068h-.436zM33.978 38.716h.81l-.298-.68c-.031-.072-.068-.184-.109-.337-.035.147-.07.26-.104.338l-.3.679zm1.31 1.168l-.331-.766h-1.154l-.338.766h-.499l1.411-3.092 1.41 3.092h-.499zM36.196 39.884L36.196 36.91 36.67 36.91 36.67 39.451 37.728 39.451 37.728 39.884zM39.343 39.884L39.343 36.91 39.816 36.91 39.816 38.007 41.249 38.007 41.249 36.91 41.723 36.91 41.723 39.884 41.249 39.884 41.249 38.439 39.816 38.439 39.816 39.884zM44.782 38.403c0-.308-.104-.57-.31-.789-.208-.218-.458-.327-.753-.327-.294 0-.546.108-.753.324-.208.217-.311.48-.311.792 0 .307.103.57.31.786.207.217.458.325.754.325.292 0 .542-.108.75-.325.209-.217.313-.479.313-.786m.493 0c0 .435-.152.802-.456 1.103-.307.305-.674.457-1.1.457-.431 0-.798-.152-1.102-.455-.304-.303-.456-.672-.456-1.105 0-.436.15-.805.454-1.107.302-.303.67-.453 1.104-.453.433 0 .8.151 1.103.455.302.303.453.671.453 1.105M45.386 39.289l.379-.18c.073.273.26.41.563.41.136 0 .247-.04.332-.117.085-.078.128-.186.128-.325 0-.173-.142-.329-.426-.467l-.092-.045c-.261-.129-.444-.242-.547-.34-.17-.155-.255-.345-.255-.568 0-.253.085-.454.257-.604.16-.14.367-.21.618-.21.445 0 .725.163.841.49l-.37.196c-.113-.18-.257-.27-.432-.27-.121 0-.22.031-.295.093-.081.067-.121.16-.121.28 0 .18.164.346.493.5l.06.029c.245.115.42.224.526.325.152.15.228.335.228.556 0 .292-.09.52-.273.683-.173.159-.404.238-.692.238-.513 0-.82-.225-.922-.674M48.262 38.153h.122c.215 0 .363-.016.443-.047.142-.056.213-.172.213-.349 0-.185-.068-.309-.206-.372-.09-.04-.24-.061-.45-.061h-.122v.829zm-.028.398v1.333h-.445v-2.975h.716c.35 0 .594.051.73.153.196.145.293.367.293.667 0 .304-.097.527-.292.672-.136.1-.38.15-.73.15h-.272zM49.968 39.884L50.442 39.884 50.442 36.909 49.968 36.909zM52.061 37.32L52.061 39.884 51.588 39.884 51.588 37.32 50.814 37.32 50.814 36.909 52.832 36.909 52.832 37.32zM53.515 38.716h.81l-.298-.68c-.031-.072-.068-.184-.109-.337-.035.147-.07.26-.105.338l-.298.679zm1.31 1.168l-.332-.766H53.34l-.338.766h-.5l1.412-3.092 1.41 3.092h-.5zM55.733 39.884L55.733 36.91 56.206 36.91 56.206 39.451 57.265 39.451 57.265 39.884z" transform="translate(20 20)"/>
                            <path fill="url(#pwogpwn5rg)" d="M39.368.215c-4.632.591-9.298 2.178-9.61 6.844-.149 2.217.526 3.882 1.288 5.487-1.912-1.902-4.67-3.425-8.541-3.054 2.355.675 5.137 1.966 6.632 3.674.316.362.776.989.667 1.527-.18.901-1.82.717-2.814.764 2.061.834 4.363 2.338 7.3 2.241 1.47-.047 2.549-.95 2.433-2.623-.203-3.006-2.395-5.573-2.623-8.97-.255-3.78 2.334-5.201 5.273-5.844.016-.004.309-.06.276-.068h-.007c-.04 0-.245.018-.274.022" transform="translate(20 20)"/>
                        </g>
                    </g>
                </g>
            </g>
        </g>
    </g>
</svg>
