<svg width="25" height="24" viewBox="0 0 25 24" fill="none" xmlns="http://www.w3.org/2000/svg">
<g clip-path="url(#clip0)">
<path fill-rule="evenodd" clip-rule="evenodd" d="M21.8518 4.5H2.35181C2.15289 4.5 1.96213 4.57902 1.82148 4.71967C1.68082 4.86032 1.60181 5.05109 1.60181 5.25V18.75C1.60181 18.9489 1.68082 19.1397 1.82148 19.2803C1.96213 19.421 2.15289 19.5 2.35181 19.5H21.8518C22.0507 19.5 22.2415 19.421 22.3821 19.2803C22.5228 19.1397 22.6018 18.9489 22.6018 18.75V5.25C22.6018 5.05109 22.5228 4.86032 22.3821 4.71967C22.2415 4.57902 22.0507 4.5 21.8518 4.5ZM2.35181 3C1.75507 3 1.18277 3.23705 0.760816 3.65901C0.33886 4.08097 0.101807 4.65326 0.101807 5.25L0.101807 18.75C0.101807 19.3467 0.33886 19.919 0.760816 20.341C1.18277 20.7629 1.75507 21 2.35181 21H21.8518C22.4485 21 23.0208 20.7629 23.4428 20.341C23.8648 19.919 24.1018 19.3467 24.1018 18.75V5.25C24.1018 4.65326 23.8648 4.08097 23.4428 3.65901C23.0208 3.23705 22.4485 3 21.8518 3H2.35181Z" fill="black"/>
<path fill-rule="evenodd" clip-rule="evenodd" d="M10.6018 8.25C10.6018 8.05109 10.6808 7.86032 10.8214 7.71967C10.9621 7.57902 11.1528 7.5 11.3518 7.5H18.8518C19.0507 7.5 19.2414 7.57902 19.3821 7.71967C19.5227 7.86032 19.6018 8.05109 19.6018 8.25C19.6018 8.44891 19.5227 8.63968 19.3821 8.78033C19.2414 8.92098 19.0507 9 18.8518 9H11.3518C11.1528 9 10.9621 8.92098 10.8214 8.78033C10.6808 8.63968 10.6018 8.44891 10.6018 8.25ZM8.35775 6.969C8.4276 7.03867 8.48301 7.12143 8.52082 7.21255C8.55863 7.30366 8.57809 7.40135 8.57809 7.5C8.57809 7.59865 8.55863 7.69633 8.52082 7.78745C8.48301 7.87857 8.4276 7.96133 8.35775 8.031L6.10775 10.281C6.03809 10.3508 5.95532 10.4063 5.8642 10.4441C5.77309 10.4819 5.6754 10.5013 5.57675 10.5013C5.4781 10.5013 5.38042 10.4819 5.2893 10.4441C5.19819 10.4063 5.11542 10.3508 5.04575 10.281L4.29575 9.531C4.22602 9.46127 4.17071 9.37848 4.13297 9.28737C4.09523 9.19626 4.07581 9.09861 4.07581 9C4.07581 8.80083 4.15492 8.60983 4.29575 8.469C4.43658 8.32817 4.62759 8.24905 4.82675 8.24905C5.02592 8.24905 5.21692 8.32817 5.35775 8.469L5.57675 8.6895L7.29575 6.969C7.36542 6.89915 7.44819 6.84374 7.5393 6.80593C7.63042 6.76812 7.7281 6.74866 7.82675 6.74866C7.9254 6.74866 8.02309 6.76812 8.1142 6.80593C8.20532 6.84374 8.28809 6.89915 8.35775 6.969ZM10.6018 14.25C10.6018 14.0511 10.6808 13.8603 10.8214 13.7197C10.9621 13.579 11.1528 13.5 11.3518 13.5H18.8518C19.0507 13.5 19.2414 13.579 19.3821 13.7197C19.5227 13.8603 19.6018 14.0511 19.6018 14.25C19.6018 14.4489 19.5227 14.6397 19.3821 14.7803C19.2414 14.921 19.0507 15 18.8518 15H11.3518C11.1528 15 10.9621 14.921 10.8214 14.7803C10.6808 14.6397 10.6018 14.4489 10.6018 14.25ZM8.35775 12.969C8.4276 13.0387 8.48301 13.1214 8.52082 13.2125C8.55863 13.3037 8.57809 13.4013 8.57809 13.5C8.57809 13.5986 8.55863 13.6963 8.52082 13.7874C8.48301 13.8786 8.4276 13.9613 8.35775 14.031L6.10775 16.281C6.03809 16.3508 5.95532 16.4063 5.8642 16.4441C5.77309 16.4819 5.6754 16.5013 5.57675 16.5013C5.4781 16.5013 5.38042 16.4819 5.2893 16.4441C5.19819 16.4063 5.11542 16.3508 5.04575 16.281L4.29575 15.531C4.22602 15.4613 4.17071 15.3785 4.13297 15.2874C4.09523 15.1963 4.07581 15.0986 4.07581 15C4.07581 14.9014 4.09523 14.8037 4.13297 14.7126C4.17071 14.6215 4.22602 14.5387 4.29575 14.469C4.36549 14.3993 4.44827 14.344 4.53938 14.3062C4.63049 14.2685 4.72814 14.2491 4.82675 14.2491C4.92537 14.2491 5.02302 14.2685 5.11413 14.3062C5.20524 14.344 5.28802 14.3993 5.35775 14.469L5.57675 14.6895L7.29575 12.969C7.36542 12.8992 7.44819 12.8437 7.5393 12.8059C7.63042 12.7681 7.7281 12.7487 7.82675 12.7487C7.9254 12.7487 8.02309 12.7681 8.1142 12.8059C8.20532 12.8437 8.28809 12.8992 8.35775 12.969Z" fill="black"/>
</g>
<defs>
<clipPath id="clip0">
<rect width="24" height="24" fill="black" transform="translate(0.101807)"/>
</clipPath>
</defs>
</svg>
