<svg width="25" height="24" viewBox="0 0 25 24" fill="none" xmlns="http://www.w3.org/2000/svg">
<path d="M16.5984 6C16.5984 7.19347 16.1243 8.33807 15.2804 9.18198C14.4365 10.0259 13.2919 10.5 12.0984 10.5C10.9049 10.5 9.76032 10.0259 8.91641 9.18198C8.07249 8.33807 7.59839 7.19347 7.59839 6C7.59839 4.80653 8.07249 3.66193 8.91641 2.81802C9.76032 1.97411 10.9049 1.5 12.0984 1.5C13.2919 1.5 14.4365 1.97411 15.2804 2.81802C16.1243 3.66193 16.5984 4.80653 16.5984 6Z" fill="black"/>
<path d="M11.3484 6H12.8484V19.5C12.8484 19.6989 12.7694 19.8897 12.6287 20.0303C12.4881 20.171 12.2973 20.25 12.0984 20.25C11.8995 20.25 11.7087 20.171 11.5681 20.0303C11.4274 19.8897 11.3484 19.6989 11.3484 19.5V6Z" fill="black"/>
<path fill-rule="evenodd" clip-rule="evenodd" d="M9.83189 18.1425C9.87376 18.3368 9.83677 18.5399 9.72905 18.7069C9.62132 18.874 9.45168 18.9915 9.25739 19.0335C8.40989 19.218 7.75289 19.4715 7.32839 19.7415C6.87539 20.0295 6.84839 20.223 6.84839 20.25C6.84839 20.2695 6.85589 20.3775 7.06739 20.565C7.27739 20.751 7.62539 20.955 8.11889 21.138C9.10139 21.507 10.5084 21.75 12.0984 21.75C13.6884 21.75 15.0954 21.507 16.0779 21.138C16.5714 20.9535 16.9179 20.751 17.1294 20.565C17.3394 20.3775 17.3484 20.2695 17.3484 20.25C17.3484 20.223 17.3214 20.0295 16.8684 19.7415C16.4439 19.4715 15.7869 19.2165 14.9394 19.0335C14.8413 19.0146 14.7479 18.9762 14.6648 18.9207C14.5817 18.8651 14.5106 18.7936 14.4555 18.7101C14.4005 18.6267 14.3627 18.5331 14.3443 18.4349C14.326 18.3367 14.3274 18.2357 14.3486 18.1381C14.3698 18.0404 14.4103 17.948 14.4677 17.8662C14.5252 17.7844 14.5984 17.7149 14.683 17.6618C14.7677 17.6087 14.8621 17.573 14.9607 17.5569C15.0594 17.5408 15.1602 17.5446 15.2574 17.568C16.2024 17.7735 17.0469 18.078 17.6724 18.477C18.2724 18.8565 18.8484 19.4445 18.8484 20.25C18.8484 20.853 18.5199 21.336 18.1239 21.687C17.7279 22.0395 17.1969 22.3215 16.6044 22.542C15.4149 22.989 13.8219 23.25 12.0984 23.25C10.3749 23.25 8.78339 22.989 7.59239 22.5435C6.99989 22.3215 6.46889 22.0395 6.07289 21.687C5.67689 21.336 5.34839 20.853 5.34839 20.25C5.34839 19.4445 5.92439 18.8565 6.52289 18.477C7.14989 18.078 7.99289 17.772 8.93939 17.568C9.03572 17.5471 9.13523 17.5453 9.23224 17.5629C9.32925 17.5804 9.42185 17.6169 9.50474 17.6702C9.58764 17.7236 9.6592 17.7928 9.71533 17.8738C9.77147 17.9549 9.81107 18.0462 9.83189 18.1425Z" fill="black"/>
</svg>
